<mxfile host="app.diagrams.net" agent="Mozilla/5.0 (Windows NT 10.0; Win64; x64) AppleWebKit/537.36 (KHTML, like Gecko) Chrome/131.0.0.0 Safari/537.36" version="24.9.1">
  <diagram name="Страница-1" id="1PFjeVDXB6tGEmcS9xZ1">
    <mxGraphModel grid="0" page="0" gridSize="10" guides="1" tooltips="1" connect="1" arrows="1" fold="1" pageScale="1" pageWidth="827" pageHeight="1169" math="0" shadow="0">
      <root>
        <mxCell id="0" />
        <mxCell id="1" parent="0" />
        <mxCell id="arjqVZ4pVlnkOwBXBBAy-1" value="Fact_Posts" style="swimlane;fontStyle=0;childLayout=stackLayout;horizontal=1;startSize=30;horizontalStack=0;resizeParent=1;resizeParentMax=0;resizeLast=0;collapsible=1;marginBottom=0;whiteSpace=wrap;html=1;" vertex="1" parent="1">
          <mxGeometry x="-217" y="415" width="140" height="180" as="geometry" />
        </mxCell>
        <mxCell id="arjqVZ4pVlnkOwBXBBAy-2" value="Post_id" style="text;strokeColor=none;fillColor=none;align=left;verticalAlign=middle;spacingLeft=4;spacingRight=4;overflow=hidden;points=[[0,0.5],[1,0.5]];portConstraint=eastwest;rotatable=0;whiteSpace=wrap;html=1;" vertex="1" parent="arjqVZ4pVlnkOwBXBBAy-1">
          <mxGeometry y="30" width="140" height="30" as="geometry" />
        </mxCell>
        <mxCell id="arjqVZ4pVlnkOwBXBBAy-3" value="Creator_id" style="text;strokeColor=none;fillColor=none;align=left;verticalAlign=middle;spacingLeft=4;spacingRight=4;overflow=hidden;points=[[0,0.5],[1,0.5]];portConstraint=eastwest;rotatable=0;whiteSpace=wrap;html=1;" vertex="1" parent="arjqVZ4pVlnkOwBXBBAy-1">
          <mxGeometry y="60" width="140" height="30" as="geometry" />
        </mxCell>
        <mxCell id="arjqVZ4pVlnkOwBXBBAy-4" value="Date_id" style="text;strokeColor=none;fillColor=none;align=left;verticalAlign=middle;spacingLeft=4;spacingRight=4;overflow=hidden;points=[[0,0.5],[1,0.5]];portConstraint=eastwest;rotatable=0;whiteSpace=wrap;html=1;" vertex="1" parent="arjqVZ4pVlnkOwBXBBAy-1">
          <mxGeometry y="90" width="140" height="30" as="geometry" />
        </mxCell>
        <mxCell id="arjqVZ4pVlnkOwBXBBAy-5" value="Reaction_count" style="text;strokeColor=none;fillColor=none;align=left;verticalAlign=middle;spacingLeft=4;spacingRight=4;overflow=hidden;points=[[0,0.5],[1,0.5]];portConstraint=eastwest;rotatable=0;whiteSpace=wrap;html=1;" vertex="1" parent="arjqVZ4pVlnkOwBXBBAy-1">
          <mxGeometry y="120" width="140" height="30" as="geometry" />
        </mxCell>
        <mxCell id="arjqVZ4pVlnkOwBXBBAy-6" value="Comment_count" style="text;strokeColor=none;fillColor=none;align=left;verticalAlign=middle;spacingLeft=4;spacingRight=4;overflow=hidden;points=[[0,0.5],[1,0.5]];portConstraint=eastwest;rotatable=0;whiteSpace=wrap;html=1;" vertex="1" parent="arjqVZ4pVlnkOwBXBBAy-1">
          <mxGeometry y="150" width="140" height="30" as="geometry" />
        </mxCell>
        <mxCell id="arjqVZ4pVlnkOwBXBBAy-7" value="Fact_Friendship" style="swimlane;fontStyle=0;childLayout=stackLayout;horizontal=1;startSize=30;horizontalStack=0;resizeParent=1;resizeParentMax=0;resizeLast=0;collapsible=1;marginBottom=0;whiteSpace=wrap;html=1;" vertex="1" parent="1">
          <mxGeometry x="351" y="428" width="140" height="180" as="geometry" />
        </mxCell>
        <mxCell id="arjqVZ4pVlnkOwBXBBAy-8" value="Friendship_id" style="text;strokeColor=none;fillColor=none;align=left;verticalAlign=middle;spacingLeft=4;spacingRight=4;overflow=hidden;points=[[0,0.5],[1,0.5]];portConstraint=eastwest;rotatable=0;whiteSpace=wrap;html=1;" vertex="1" parent="arjqVZ4pVlnkOwBXBBAy-7">
          <mxGeometry y="30" width="140" height="30" as="geometry" />
        </mxCell>
        <mxCell id="arjqVZ4pVlnkOwBXBBAy-9" value="User_id_1" style="text;strokeColor=none;fillColor=none;align=left;verticalAlign=middle;spacingLeft=4;spacingRight=4;overflow=hidden;points=[[0,0.5],[1,0.5]];portConstraint=eastwest;rotatable=0;whiteSpace=wrap;html=1;" vertex="1" parent="arjqVZ4pVlnkOwBXBBAy-7">
          <mxGeometry y="60" width="140" height="30" as="geometry" />
        </mxCell>
        <mxCell id="arjqVZ4pVlnkOwBXBBAy-10" value="User_id_2" style="text;strokeColor=none;fillColor=none;align=left;verticalAlign=middle;spacingLeft=4;spacingRight=4;overflow=hidden;points=[[0,0.5],[1,0.5]];portConstraint=eastwest;rotatable=0;whiteSpace=wrap;html=1;" vertex="1" parent="arjqVZ4pVlnkOwBXBBAy-7">
          <mxGeometry y="90" width="140" height="30" as="geometry" />
        </mxCell>
        <mxCell id="arjqVZ4pVlnkOwBXBBAy-11" value="Date_id" style="text;strokeColor=none;fillColor=none;align=left;verticalAlign=middle;spacingLeft=4;spacingRight=4;overflow=hidden;points=[[0,0.5],[1,0.5]];portConstraint=eastwest;rotatable=0;whiteSpace=wrap;html=1;" vertex="1" parent="arjqVZ4pVlnkOwBXBBAy-7">
          <mxGeometry y="120" width="140" height="30" as="geometry" />
        </mxCell>
        <mxCell id="arjqVZ4pVlnkOwBXBBAy-12" value="Status" style="text;strokeColor=none;fillColor=none;align=left;verticalAlign=middle;spacingLeft=4;spacingRight=4;overflow=hidden;points=[[0,0.5],[1,0.5]];portConstraint=eastwest;rotatable=0;whiteSpace=wrap;html=1;" vertex="1" parent="arjqVZ4pVlnkOwBXBBAy-7">
          <mxGeometry y="150" width="140" height="30" as="geometry" />
        </mxCell>
        <mxCell id="arjqVZ4pVlnkOwBXBBAy-13" value="Dimension_user" style="swimlane;fontStyle=0;childLayout=stackLayout;horizontal=1;startSize=30;horizontalStack=0;resizeParent=1;resizeParentMax=0;resizeLast=0;collapsible=1;marginBottom=0;whiteSpace=wrap;html=1;" vertex="1" parent="1">
          <mxGeometry x="50" y="218" width="140" height="180" as="geometry" />
        </mxCell>
        <mxCell id="arjqVZ4pVlnkOwBXBBAy-14" value="User_id" style="text;strokeColor=none;fillColor=none;align=left;verticalAlign=middle;spacingLeft=4;spacingRight=4;overflow=hidden;points=[[0,0.5],[1,0.5]];portConstraint=eastwest;rotatable=0;whiteSpace=wrap;html=1;" vertex="1" parent="arjqVZ4pVlnkOwBXBBAy-13">
          <mxGeometry y="30" width="140" height="30" as="geometry" />
        </mxCell>
        <mxCell id="arjqVZ4pVlnkOwBXBBAy-15" value="Name" style="text;strokeColor=none;fillColor=none;align=left;verticalAlign=middle;spacingLeft=4;spacingRight=4;overflow=hidden;points=[[0,0.5],[1,0.5]];portConstraint=eastwest;rotatable=0;whiteSpace=wrap;html=1;" vertex="1" parent="arjqVZ4pVlnkOwBXBBAy-13">
          <mxGeometry y="60" width="140" height="30" as="geometry" />
        </mxCell>
        <mxCell id="arjqVZ4pVlnkOwBXBBAy-16" value="Email" style="text;strokeColor=none;fillColor=none;align=left;verticalAlign=middle;spacingLeft=4;spacingRight=4;overflow=hidden;points=[[0,0.5],[1,0.5]];portConstraint=eastwest;rotatable=0;whiteSpace=wrap;html=1;" vertex="1" parent="arjqVZ4pVlnkOwBXBBAy-13">
          <mxGeometry y="90" width="140" height="30" as="geometry" />
        </mxCell>
        <mxCell id="arjqVZ4pVlnkOwBXBBAy-17" value="date_of_birth" style="text;strokeColor=none;fillColor=none;align=left;verticalAlign=middle;spacingLeft=4;spacingRight=4;overflow=hidden;points=[[0,0.5],[1,0.5]];portConstraint=eastwest;rotatable=0;whiteSpace=wrap;html=1;" vertex="1" parent="arjqVZ4pVlnkOwBXBBAy-13">
          <mxGeometry y="120" width="140" height="30" as="geometry" />
        </mxCell>
        <mxCell id="arjqVZ4pVlnkOwBXBBAy-18" value="friends_counter" style="text;strokeColor=none;fillColor=none;align=left;verticalAlign=middle;spacingLeft=4;spacingRight=4;overflow=hidden;points=[[0,0.5],[1,0.5]];portConstraint=eastwest;rotatable=0;whiteSpace=wrap;html=1;" vertex="1" parent="arjqVZ4pVlnkOwBXBBAy-13">
          <mxGeometry y="150" width="140" height="30" as="geometry" />
        </mxCell>
        <mxCell id="arjqVZ4pVlnkOwBXBBAy-36" value="&lt;div&gt;Dimension_Reactions&lt;/div&gt;" style="swimlane;fontStyle=0;childLayout=stackLayout;horizontal=1;startSize=31;horizontalStack=0;resizeParent=1;resizeParentMax=0;resizeLast=0;collapsible=1;marginBottom=0;whiteSpace=wrap;html=1;" vertex="1" parent="1">
          <mxGeometry x="-542" y="247" width="153" height="151" as="geometry" />
        </mxCell>
        <mxCell id="arjqVZ4pVlnkOwBXBBAy-37" value="Reaction_id" style="text;strokeColor=none;fillColor=none;align=left;verticalAlign=middle;spacingLeft=4;spacingRight=4;overflow=hidden;points=[[0,0.5],[1,0.5]];portConstraint=eastwest;rotatable=0;whiteSpace=wrap;html=1;" vertex="1" parent="arjqVZ4pVlnkOwBXBBAy-36">
          <mxGeometry y="31" width="153" height="30" as="geometry" />
        </mxCell>
        <mxCell id="arjqVZ4pVlnkOwBXBBAy-43" value="R_post_id" style="text;strokeColor=none;fillColor=none;align=left;verticalAlign=middle;spacingLeft=4;spacingRight=4;overflow=hidden;points=[[0,0.5],[1,0.5]];portConstraint=eastwest;rotatable=0;whiteSpace=wrap;html=1;" vertex="1" parent="arjqVZ4pVlnkOwBXBBAy-36">
          <mxGeometry y="61" width="153" height="30" as="geometry" />
        </mxCell>
        <mxCell id="arjqVZ4pVlnkOwBXBBAy-38" value="Reaction_type_id" style="text;strokeColor=none;fillColor=none;align=left;verticalAlign=middle;spacingLeft=4;spacingRight=4;overflow=hidden;points=[[0,0.5],[1,0.5]];portConstraint=eastwest;rotatable=0;whiteSpace=wrap;html=1;" vertex="1" parent="arjqVZ4pVlnkOwBXBBAy-36">
          <mxGeometry y="91" width="153" height="30" as="geometry" />
        </mxCell>
        <mxCell id="arjqVZ4pVlnkOwBXBBAy-42" value="Reactior_id" style="text;strokeColor=none;fillColor=none;align=left;verticalAlign=middle;spacingLeft=4;spacingRight=4;overflow=hidden;points=[[0,0.5],[1,0.5]];portConstraint=eastwest;rotatable=0;whiteSpace=wrap;html=1;" vertex="1" parent="arjqVZ4pVlnkOwBXBBAy-36">
          <mxGeometry y="121" width="153" height="30" as="geometry" />
        </mxCell>
        <mxCell id="arjqVZ4pVlnkOwBXBBAy-41" value="" style="endArrow=classic;html=1;rounded=0;fontSize=12;startSize=8;endSize=8;curved=1;entryX=0;entryY=0.5;entryDx=0;entryDy=0;exitX=1;exitY=0.5;exitDx=0;exitDy=0;" edge="1" parent="1" source="arjqVZ4pVlnkOwBXBBAy-4" target="arjqVZ4pVlnkOwBXBBAy-20">
          <mxGeometry width="50" height="50" relative="1" as="geometry">
            <mxPoint x="-327" y="485" as="sourcePoint" />
            <mxPoint x="-277" y="435" as="targetPoint" />
          </mxGeometry>
        </mxCell>
        <mxCell id="arjqVZ4pVlnkOwBXBBAy-19" value="Dimension_date" style="swimlane;fontStyle=0;childLayout=stackLayout;horizontal=1;startSize=30;horizontalStack=0;resizeParent=1;resizeParentMax=0;resizeLast=0;collapsible=1;marginBottom=0;whiteSpace=wrap;html=1;" vertex="1" parent="1">
          <mxGeometry x="21" y="651" width="153" height="180" as="geometry" />
        </mxCell>
        <mxCell id="arjqVZ4pVlnkOwBXBBAy-20" value="Date_id" style="text;strokeColor=none;fillColor=none;align=left;verticalAlign=middle;spacingLeft=4;spacingRight=4;overflow=hidden;points=[[0,0.5],[1,0.5]];portConstraint=eastwest;rotatable=0;whiteSpace=wrap;html=1;" vertex="1" parent="arjqVZ4pVlnkOwBXBBAy-19">
          <mxGeometry y="30" width="153" height="30" as="geometry" />
        </mxCell>
        <mxCell id="arjqVZ4pVlnkOwBXBBAy-21" value="Date" style="text;strokeColor=none;fillColor=none;align=left;verticalAlign=middle;spacingLeft=4;spacingRight=4;overflow=hidden;points=[[0,0.5],[1,0.5]];portConstraint=eastwest;rotatable=0;whiteSpace=wrap;html=1;" vertex="1" parent="arjqVZ4pVlnkOwBXBBAy-19">
          <mxGeometry y="60" width="153" height="30" as="geometry" />
        </mxCell>
        <mxCell id="arjqVZ4pVlnkOwBXBBAy-22" value="Day" style="text;strokeColor=none;fillColor=none;align=left;verticalAlign=middle;spacingLeft=4;spacingRight=4;overflow=hidden;points=[[0,0.5],[1,0.5]];portConstraint=eastwest;rotatable=0;whiteSpace=wrap;html=1;" vertex="1" parent="arjqVZ4pVlnkOwBXBBAy-19">
          <mxGeometry y="90" width="153" height="30" as="geometry" />
        </mxCell>
        <mxCell id="arjqVZ4pVlnkOwBXBBAy-23" value="Month" style="text;strokeColor=none;fillColor=none;align=left;verticalAlign=middle;spacingLeft=4;spacingRight=4;overflow=hidden;points=[[0,0.5],[1,0.5]];portConstraint=eastwest;rotatable=0;whiteSpace=wrap;html=1;" vertex="1" parent="arjqVZ4pVlnkOwBXBBAy-19">
          <mxGeometry y="120" width="153" height="30" as="geometry" />
        </mxCell>
        <mxCell id="arjqVZ4pVlnkOwBXBBAy-24" value="Year" style="text;strokeColor=none;fillColor=none;align=left;verticalAlign=middle;spacingLeft=4;spacingRight=4;overflow=hidden;points=[[0,0.5],[1,0.5]];portConstraint=eastwest;rotatable=0;whiteSpace=wrap;html=1;" vertex="1" parent="arjqVZ4pVlnkOwBXBBAy-19">
          <mxGeometry y="150" width="153" height="30" as="geometry" />
        </mxCell>
        <mxCell id="arjqVZ4pVlnkOwBXBBAy-44" value="" style="endArrow=classic;html=1;rounded=0;fontSize=12;startSize=8;endSize=8;curved=1;entryX=1;entryY=0.5;entryDx=0;entryDy=0;exitX=0;exitY=0.5;exitDx=0;exitDy=0;" edge="1" parent="1" source="arjqVZ4pVlnkOwBXBBAy-2" target="arjqVZ4pVlnkOwBXBBAy-43">
          <mxGeometry width="50" height="50" relative="1" as="geometry">
            <mxPoint x="-354" y="388" as="sourcePoint" />
            <mxPoint x="-304" y="338" as="targetPoint" />
          </mxGeometry>
        </mxCell>
        <mxCell id="arjqVZ4pVlnkOwBXBBAy-45" value="" style="endArrow=classic;html=1;rounded=0;fontSize=12;startSize=8;endSize=8;curved=1;entryX=0;entryY=0.5;entryDx=0;entryDy=0;exitX=1;exitY=0.5;exitDx=0;exitDy=0;" edge="1" parent="1" source="arjqVZ4pVlnkOwBXBBAy-3" target="arjqVZ4pVlnkOwBXBBAy-14">
          <mxGeometry width="50" height="50" relative="1" as="geometry">
            <mxPoint x="-66" y="715" as="sourcePoint" />
            <mxPoint x="-16" y="665" as="targetPoint" />
          </mxGeometry>
        </mxCell>
        <mxCell id="arjqVZ4pVlnkOwBXBBAy-46" value="Dimension_Comment" style="swimlane;fontStyle=0;childLayout=stackLayout;horizontal=1;startSize=30;horizontalStack=0;resizeParent=1;resizeParentMax=0;resizeLast=0;collapsible=1;marginBottom=0;whiteSpace=wrap;html=1;" vertex="1" parent="1">
          <mxGeometry x="-538" y="684" width="165" height="120" as="geometry" />
        </mxCell>
        <mxCell id="arjqVZ4pVlnkOwBXBBAy-47" value="Comment_id" style="text;strokeColor=none;fillColor=none;align=left;verticalAlign=middle;spacingLeft=4;spacingRight=4;overflow=hidden;points=[[0,0.5],[1,0.5]];portConstraint=eastwest;rotatable=0;whiteSpace=wrap;html=1;" vertex="1" parent="arjqVZ4pVlnkOwBXBBAy-46">
          <mxGeometry y="30" width="165" height="30" as="geometry" />
        </mxCell>
        <mxCell id="arjqVZ4pVlnkOwBXBBAy-48" value="C_post_id" style="text;strokeColor=none;fillColor=none;align=left;verticalAlign=middle;spacingLeft=4;spacingRight=4;overflow=hidden;points=[[0,0.5],[1,0.5]];portConstraint=eastwest;rotatable=0;whiteSpace=wrap;html=1;" vertex="1" parent="arjqVZ4pVlnkOwBXBBAy-46">
          <mxGeometry y="60" width="165" height="30" as="geometry" />
        </mxCell>
        <mxCell id="arjqVZ4pVlnkOwBXBBAy-49" value="Commentator_id" style="text;strokeColor=none;fillColor=none;align=left;verticalAlign=middle;spacingLeft=4;spacingRight=4;overflow=hidden;points=[[0,0.5],[1,0.5]];portConstraint=eastwest;rotatable=0;whiteSpace=wrap;html=1;" vertex="1" parent="arjqVZ4pVlnkOwBXBBAy-46">
          <mxGeometry y="90" width="165" height="30" as="geometry" />
        </mxCell>
        <mxCell id="arjqVZ4pVlnkOwBXBBAy-50" value="" style="endArrow=classic;html=1;rounded=0;fontSize=12;startSize=8;endSize=8;curved=1;entryX=1;entryY=0.5;entryDx=0;entryDy=0;exitX=0;exitY=0.5;exitDx=0;exitDy=0;" edge="1" parent="1" source="arjqVZ4pVlnkOwBXBBAy-2" target="arjqVZ4pVlnkOwBXBBAy-48">
          <mxGeometry width="50" height="50" relative="1" as="geometry">
            <mxPoint x="-273" y="589" as="sourcePoint" />
            <mxPoint x="-292" y="657" as="targetPoint" />
          </mxGeometry>
        </mxCell>
        <mxCell id="arjqVZ4pVlnkOwBXBBAy-51" value="" style="endArrow=classic;html=1;rounded=0;fontSize=12;startSize=8;endSize=8;curved=1;entryX=1;entryY=0.5;entryDx=0;entryDy=0;exitX=0;exitY=0.5;exitDx=0;exitDy=0;" edge="1" parent="1" source="arjqVZ4pVlnkOwBXBBAy-11" target="arjqVZ4pVlnkOwBXBBAy-20">
          <mxGeometry width="50" height="50" relative="1" as="geometry">
            <mxPoint x="295" y="797" as="sourcePoint" />
            <mxPoint x="282" y="669" as="targetPoint" />
          </mxGeometry>
        </mxCell>
        <mxCell id="arjqVZ4pVlnkOwBXBBAy-52" value="" style="endArrow=classic;html=1;rounded=0;fontSize=12;startSize=8;endSize=8;curved=1;entryX=1;entryY=0.5;entryDx=0;entryDy=0;exitX=0;exitY=0.5;exitDx=0;exitDy=0;" edge="1" parent="1" source="arjqVZ4pVlnkOwBXBBAy-9" target="arjqVZ4pVlnkOwBXBBAy-14">
          <mxGeometry width="50" height="50" relative="1" as="geometry">
            <mxPoint x="301" y="441" as="sourcePoint" />
            <mxPoint x="124" y="574" as="targetPoint" />
          </mxGeometry>
        </mxCell>
      </root>
    </mxGraphModel>
  </diagram>
</mxfile>
